<svg width="200" height="50" viewBox="0 0 200 50" fill="none" xmlns="http://www.w3.org/2000/svg">
  <path d="M10 25C10 16.716 16.716 10 25 10H45C53.284 10 60 16.716 60 25C60 33.284 53.284 40 45 40H25C16.716 40 10 33.284 10 25Z" fill="#0066FF"/>
  <path d="M30 15C30 15 35 20 35 25C35 30 30 35 30 35" stroke="white" stroke-width="2"/>
  <path d="M40 15C40 15 45 20 45 25C45 30 40 35 40 35" stroke="white" stroke-width="2"/>
  <path d="M20 15C20 15 25 20 25 25C25 30 20 35 20 35" stroke="white" stroke-width="2"/>
  <text x="70" y="30" font-family="Arial, sans-serif" font-weight="bold" font-size="20" fill="#0066FF">AlgoWave</text>
</svg> 